<svg width="136" height="54" viewBox="0 0 136 54" fill="none" xmlns="http://www.w3.org/2000/svg">
<path d="M67.584 8.016C68.064 8 68.96 7.992 70.272 7.992C71.6 7.992 72.504 8 72.984 8.016C74.808 8.08 76.168 8.528 77.064 9.36C77.96 10.176 78.408 11.28 78.408 12.672C78.408 13.856 78.104 14.864 77.496 15.696C76.904 16.512 76.072 17.048 75 17.304C75.336 17.576 75.68 17.952 76.032 18.432C76.384 18.896 76.872 19.624 77.496 20.616C78.152 21.656 78.816 22.784 79.488 24H75.456L72.744 18.96C72.456 18.432 72.192 18.104 71.952 17.976C71.728 17.832 71.384 17.76 70.92 17.76V24H67.584V8.016ZM72.408 15.096C73.224 15.096 73.864 14.888 74.328 14.472C74.808 14.056 75.048 13.496 75.048 12.792C75.048 12.152 74.84 11.664 74.424 11.328C74.008 10.992 73.4 10.824 72.6 10.824H70.92V15.096H72.408ZM87.9977 24.36C86.2217 24.36 84.6857 24.048 83.3897 23.424C82.1097 22.784 81.1257 21.872 80.4377 20.688C79.7497 19.504 79.4057 18.096 79.4057 16.464C79.4057 14.752 79.7657 13.24 80.4857 11.928C81.2217 10.616 82.2457 9.6 83.5577 8.88C84.8857 8.16 86.4137 7.8 88.1417 7.8C89.1337 7.8 90.0697 7.912 90.9497 8.136C91.8457 8.36 92.6377 8.68 93.3257 9.096L92.4857 11.976C91.8617 11.592 91.1657 11.296 90.3977 11.088C89.6297 10.864 88.8777 10.752 88.1417 10.752C87.0857 10.752 86.1497 10.984 85.3337 11.448C84.5337 11.896 83.9097 12.536 83.4617 13.368C83.0297 14.184 82.8137 15.136 82.8137 16.224C82.8137 17.824 83.2937 19.088 84.2537 20.016C85.2297 20.928 86.5577 21.384 88.2377 21.384C88.9097 21.384 89.5337 21.336 90.1097 21.24V17.928H88.0937V15.12H93.3017V23.424C91.6537 24.048 89.8857 24.36 87.9977 24.36ZM99.7691 8.016H103.945L109.873 24H106.273L104.977 20.352H98.6891L97.4651 24H93.9131L99.7691 8.016ZM103.945 17.376L101.785 11.256L99.6971 17.376H103.945ZM115.306 8.016H119.482L125.41 24H121.81L120.514 20.352H114.226L113.002 24H109.45L115.306 8.016ZM119.482 17.376L117.322 11.256L115.234 17.376H119.482ZM70.032 33.136L66.888 33.736L66.504 32.104L70.776 30.928H71.952V43H70.032V33.136ZM79.2739 37C79.2739 37.576 79.3619 38.136 79.5379 38.68C79.7139 39.208 79.9779 39.672 80.3299 40.072C80.6819 40.472 81.1059 40.792 81.6019 41.032C82.0979 41.272 82.6739 41.392 83.3299 41.392C83.9699 41.392 84.5379 41.272 85.0339 41.032C85.5299 40.792 85.9459 40.472 86.2819 40.072C86.6339 39.672 86.8979 39.208 87.0739 38.68C87.2499 38.136 87.3379 37.576 87.3379 37C87.3379 36.408 87.2499 35.848 87.0739 35.32C86.8979 34.776 86.6339 34.304 86.2819 33.904C85.9459 33.504 85.5299 33.192 85.0339 32.968C84.5379 32.728 83.9699 32.608 83.3299 32.608C82.6739 32.608 82.0979 32.728 81.6019 32.968C81.1059 33.192 80.6819 33.504 80.3299 33.904C79.9779 34.304 79.7139 34.776 79.5379 35.32C79.3619 35.848 79.2739 36.408 79.2739 37ZM77.2339 37C77.2339 36.12 77.3859 35.296 77.6899 34.528C77.9939 33.76 78.4179 33.096 78.9619 32.536C79.5059 31.96 80.1459 31.512 80.8819 31.192C81.6339 30.856 82.4499 30.688 83.3299 30.688C84.1939 30.688 84.9939 30.856 85.7299 31.192C86.4819 31.512 87.1219 31.96 87.6499 32.536C88.1939 33.096 88.6179 33.76 88.9219 34.528C89.2259 35.296 89.3779 36.12 89.3779 37C89.3779 37.864 89.2259 38.68 88.9219 39.448C88.6179 40.216 88.1939 40.888 87.6499 41.464C87.1219 42.04 86.4819 42.496 85.7299 42.832C84.9939 43.152 84.1939 43.312 83.3299 43.312C82.4499 43.312 81.6339 43.152 80.8819 42.832C80.1459 42.496 79.5059 42.04 78.9619 41.464C78.4179 40.888 77.9939 40.216 77.6899 39.448C77.3859 38.68 77.2339 37.864 77.2339 37ZM96.7103 33.136L93.5663 33.736L93.1823 32.104L97.4543 30.928H98.6303V43H96.7103V33.136ZM111.386 34.24H109.526V32.94H111.386C111.386 32.0067 111.446 31.22 111.566 30.58C111.7 29.9267 111.906 29.4 112.186 29C112.466 28.5867 112.826 28.2933 113.266 28.12C113.706 27.9333 114.24 27.84 114.866 27.84C115.373 27.84 115.846 27.9267 116.286 28.1C116.726 28.26 117.08 28.46 117.346 28.7L116.646 29.9C116.38 29.7 116.1 29.54 115.806 29.42C115.526 29.3 115.22 29.24 114.886 29.24C114.446 29.24 114.1 29.34 113.846 29.54C113.593 29.7267 113.4 29.9867 113.266 30.32C113.146 30.6533 113.066 31.0467 113.026 31.5C113 31.94 112.986 32.42 112.986 32.94H115.486V34.24H112.986V43H111.386V34.24ZM119.123 34.56C119.123 34.2533 119.09 33.7733 119.023 33.12L120.503 32.92L120.663 34.38H120.683C120.923 34.0733 121.157 33.8067 121.383 33.58C121.61 33.3533 121.843 33.16 122.083 33C122.337 32.8267 122.577 32.74 122.803 32.74C123.11 32.7267 123.537 32.76 124.083 32.84L123.723 34.38C123.283 34.3 122.977 34.2667 122.803 34.28C122.577 34.28 122.337 34.3867 122.083 34.6C121.83 34.8133 121.61 35.04 121.423 35.28C121.183 35.5733 120.95 35.9067 120.723 36.28V43H119.123V34.56Z" fill="#C7C1CA"/>
<path d="M53.6818 28.0917C53.6818 40.7441 50.4251 47.1826 37.7727 47.1826C14.5455 47.1826 5 40.7441 5 28.0917C5 15.4394 17.4091 5.50082 29.5 3.27355C42.8636 0.811793 53.6818 15.4394 53.6818 28.0917Z" fill="white"/>
<path opacity="0.75" d="M15.8182 27.7546L32.1699 14.766L42.2274 27.4277L34.9092 31.2174L19.6364 30.5182L15.8182 27.7546Z" fill="#9B2CDA"/>
<path d="M29.9118 36.6826H27.8155V32.5436C26.1385 32.4402 24.6711 32.2332 23.2038 32.0263L22.1556 36.0618L20.1642 35.5444L21.2123 31.5089C19.8497 31.095 18.6968 30.6811 17.6487 30.1637L15.6572 33.7853L13.7706 32.7506L15.762 29.129C12.6177 27.2665 11.0455 25.3005 11.0455 25.3005L12.7225 23.9553C12.7225 24.0588 18.2776 30.4742 28.8637 30.4742C39.4498 30.4742 45.0048 24.0588 45.1096 23.9553L46.6818 25.3005C46.6818 25.3005 45.0048 27.2665 41.9653 29.0255L43.9567 32.6471L42.0701 33.6819L40.0786 30.0603C39.0305 30.5776 37.7727 31.095 36.515 31.4054L37.5631 35.4409L35.5717 35.9583L34.5235 31.9228C33.0562 32.2332 31.5888 32.4402 29.9118 32.5436V36.6826Z" fill="#231F20"/>
<circle cx="43.5" cy="38.5" r="2.5" fill="#E051AA"/>
<circle cx="105.5" cy="40.5" r="2.5" fill="#E051AA"/>
</svg>
