<svg width="49" height="45" viewBox="0 0 49 45" fill="none" xmlns="http://www.w3.org/2000/svg">
<path d="M48.6818 25.0917C48.6818 37.7441 45.4251 44.1826 32.7727 44.1826C9.54546 44.1826 0 37.7441 0 25.0917C0 12.4394 12.4091 2.50082 24.5 0.273552C37.8636 -2.18821 48.6818 12.4394 48.6818 25.0917Z" fill="white"/>
<path opacity="0.75" d="M10.8182 24.7546L27.1699 11.766L37.2274 24.4277L29.9092 28.2174L14.6364 27.5182L10.8182 24.7546Z" fill="#9B2CDA"/>
<path d="M24.9118 33.6826H22.8155V29.5436C21.1385 29.4402 19.6711 29.2332 18.2037 29.0263L17.1556 33.0618L15.1642 32.5444L16.2123 28.5089C14.8497 28.095 13.6968 27.6811 12.6486 27.1637L10.6572 30.7853L8.77057 29.7506L10.762 26.129C7.61763 24.2665 6.04544 22.3005 6.04544 22.3005L7.72245 20.9553C7.72245 21.0588 13.2775 27.4742 23.8636 27.4742C34.4497 27.4742 40.0048 21.0588 40.1096 20.9553L41.6818 22.3005C41.6818 22.3005 40.0048 24.2665 36.9652 26.0255L38.9567 29.6471L37.07 30.6819L35.0786 27.0603C34.0305 27.5776 32.7727 28.095 31.515 28.4054L32.5631 32.4409L30.5716 32.9583L29.5235 28.9228C28.0561 29.2332 26.5888 29.4402 24.9118 29.5436V33.6826Z" fill="#231F20"/>
<circle cx="38.5" cy="35.5" r="2.5" fill="#E051AA"/>
</svg>
