<svg width="121" height="48" viewBox="0 0 121 48" fill="none" xmlns="http://www.w3.org/2000/svg">
<path d="M62.584 8.016C63.064 8 63.96 7.992 65.272 7.992C66.6 7.992 67.504 8 67.984 8.016C69.808 8.08 71.168 8.528 72.064 9.36C72.96 10.176 73.408 11.28 73.408 12.672C73.408 13.856 73.104 14.864 72.496 15.696C71.904 16.512 71.072 17.048 70 17.304C70.336 17.576 70.68 17.952 71.032 18.432C71.384 18.896 71.872 19.624 72.496 20.616C73.152 21.656 73.816 22.784 74.488 24H70.456L67.744 18.96C67.456 18.432 67.192 18.104 66.952 17.976C66.728 17.832 66.384 17.76 65.92 17.76V24H62.584V8.016ZM67.408 15.096C68.224 15.096 68.864 14.888 69.328 14.472C69.808 14.056 70.048 13.496 70.048 12.792C70.048 12.152 69.84 11.664 69.424 11.328C69.008 10.992 68.4 10.824 67.6 10.824H65.92V15.096H67.408ZM82.9977 24.36C81.2217 24.36 79.6857 24.048 78.3897 23.424C77.1097 22.784 76.1257 21.872 75.4377 20.688C74.7497 19.504 74.4057 18.096 74.4057 16.464C74.4057 14.752 74.7657 13.24 75.4857 11.928C76.2217 10.616 77.2457 9.6 78.5577 8.88C79.8857 8.16 81.4137 7.8 83.1417 7.8C84.1337 7.8 85.0697 7.912 85.9497 8.136C86.8457 8.36 87.6377 8.68 88.3257 9.096L87.4857 11.976C86.8617 11.592 86.1657 11.296 85.3977 11.088C84.6297 10.864 83.8777 10.752 83.1417 10.752C82.0857 10.752 81.1497 10.984 80.3337 11.448C79.5337 11.896 78.9097 12.536 78.4617 13.368C78.0297 14.184 77.8137 15.136 77.8137 16.224C77.8137 17.824 78.2937 19.088 79.2537 20.016C80.2297 20.928 81.5577 21.384 83.2377 21.384C83.9097 21.384 84.5337 21.336 85.1097 21.24V17.928H83.0937V15.12H88.3017V23.424C86.6537 24.048 84.8857 24.36 82.9977 24.36ZM94.7691 8.016H98.9451L104.873 24H101.273L99.9771 20.352H93.6891L92.4651 24H88.9131L94.7691 8.016ZM98.9451 17.376L96.7851 11.256L94.6971 17.376H98.9451ZM110.306 8.016H114.482L120.41 24H116.81L115.514 20.352H109.226L108.002 24H104.45L110.306 8.016ZM114.482 17.376L112.322 11.256L110.234 17.376H114.482ZM65.032 33.136L61.888 33.736L61.504 32.104L65.776 30.928H66.952V43H65.032V33.136ZM74.2739 37C74.2739 37.576 74.3619 38.136 74.5379 38.68C74.7139 39.208 74.9779 39.672 75.3299 40.072C75.6819 40.472 76.1059 40.792 76.6019 41.032C77.0979 41.272 77.6739 41.392 78.3299 41.392C78.9699 41.392 79.5379 41.272 80.0339 41.032C80.5299 40.792 80.9459 40.472 81.2819 40.072C81.6339 39.672 81.8979 39.208 82.0739 38.68C82.2499 38.136 82.3379 37.576 82.3379 37C82.3379 36.408 82.2499 35.848 82.0739 35.32C81.8979 34.776 81.6339 34.304 81.2819 33.904C80.9459 33.504 80.5299 33.192 80.0339 32.968C79.5379 32.728 78.9699 32.608 78.3299 32.608C77.6739 32.608 77.0979 32.728 76.6019 32.968C76.1059 33.192 75.6819 33.504 75.3299 33.904C74.9779 34.304 74.7139 34.776 74.5379 35.32C74.3619 35.848 74.2739 36.408 74.2739 37ZM72.2339 37C72.2339 36.12 72.3859 35.296 72.6899 34.528C72.9939 33.76 73.4179 33.096 73.9619 32.536C74.5059 31.96 75.1459 31.512 75.8819 31.192C76.6339 30.856 77.4499 30.688 78.3299 30.688C79.1939 30.688 79.9939 30.856 80.7299 31.192C81.4819 31.512 82.1219 31.96 82.6499 32.536C83.1939 33.096 83.6179 33.76 83.9219 34.528C84.2259 35.296 84.3779 36.12 84.3779 37C84.3779 37.864 84.2259 38.68 83.9219 39.448C83.6179 40.216 83.1939 40.888 82.6499 41.464C82.1219 42.04 81.4819 42.496 80.7299 42.832C79.9939 43.152 79.1939 43.312 78.3299 43.312C77.4499 43.312 76.6339 43.152 75.8819 42.832C75.1459 42.496 74.5059 42.04 73.9619 41.464C73.4179 40.888 72.9939 40.216 72.6899 39.448C72.3859 38.68 72.2339 37.864 72.2339 37ZM91.7103 33.136L88.5663 33.736L88.1823 32.104L92.4543 30.928H93.6303V43H91.7103V33.136ZM106.386 34.24H104.526V32.94H106.386C106.386 32.0067 106.446 31.22 106.566 30.58C106.7 29.9267 106.906 29.4 107.186 29C107.466 28.5867 107.826 28.2933 108.266 28.12C108.706 27.9333 109.24 27.84 109.866 27.84C110.373 27.84 110.846 27.9267 111.286 28.1C111.726 28.26 112.08 28.46 112.346 28.7L111.646 29.9C111.38 29.7 111.1 29.54 110.806 29.42C110.526 29.3 110.22 29.24 109.886 29.24C109.446 29.24 109.1 29.34 108.846 29.54C108.593 29.7267 108.4 29.9867 108.266 30.32C108.146 30.6533 108.066 31.0467 108.026 31.5C108 31.94 107.986 32.42 107.986 32.94H110.486V34.24H107.986V43H106.386V34.24ZM114.123 34.56C114.123 34.2533 114.09 33.7733 114.023 33.12L115.503 32.92L115.663 34.38H115.683C115.923 34.0733 116.157 33.8067 116.383 33.58C116.61 33.3533 116.843 33.16 117.083 33C117.337 32.8267 117.577 32.74 117.803 32.74C118.11 32.7267 118.537 32.76 119.083 32.84L118.723 34.38C118.283 34.3 117.977 34.2667 117.803 34.28C117.577 34.28 117.337 34.3867 117.083 34.6C116.83 34.8133 116.61 35.04 116.423 35.28C116.183 35.5733 115.95 35.9067 115.723 36.28V43H114.123V34.56Z" fill="#484C57"/>
<path d="M48.6818 28.0917C48.6818 40.7441 45.4251 47.1826 32.7727 47.1826C9.54546 47.1826 0 40.7441 0 28.0917C0 15.4394 12.4091 5.50082 24.5 3.27355C37.8636 0.811793 48.6818 15.4394 48.6818 28.0917Z" fill="white"/>
<path opacity="0.75" d="M10.8182 27.7546L27.1699 14.766L37.2274 27.4277L29.9092 31.2174L14.6364 30.5182L10.8182 27.7546Z" fill="#9B2CDA"/>
<path d="M24.9118 36.6826H22.8155V32.5436C21.1385 32.4402 19.6711 32.2332 18.2038 32.0263L17.1556 36.0618L15.1642 35.5444L16.2123 31.5089C14.8497 31.095 13.6968 30.6811 12.6487 30.1637L10.6572 33.7853L8.7706 32.7506L10.762 29.129C7.61766 27.2665 6.04547 25.3005 6.04547 25.3005L7.72248 23.9553C7.72248 24.0588 13.2776 30.4742 23.8637 30.4742C34.4498 30.4742 40.0048 24.0588 40.1096 23.9553L41.6818 25.3005C41.6818 25.3005 40.0048 27.2665 36.9653 29.0255L38.9567 32.6471L37.0701 33.6819L35.0786 30.0603C34.0305 30.5776 32.7727 31.095 31.515 31.4054L32.5631 35.4409L30.5717 35.9583L29.5235 31.9228C28.0562 32.2332 26.5888 32.4402 24.9118 32.5436V36.6826Z" fill="#231F20"/>
<circle cx="38.5" cy="38.5" r="2.5" fill="#E051AA"/>
<circle cx="100.5" cy="40.5" r="2.5" fill="#E051AA"/>
</svg>
