<?xml version="1.0" standalone="no"?>
<!DOCTYPE svg PUBLIC "-//W3C//DTD SVG 20010904//EN"
 "http://www.w3.org/TR/2001/REC-SVG-20010904/DTD/svg10.dtd">
<svg version="1.0" xmlns="http://www.w3.org/2000/svg"
 width="784.000000pt" height="784.000000pt" viewBox="0 0 784.000000 784.000000"
 preserveAspectRatio="xMidYMid meet">
<metadata>
Created by potrace 1.14, written by Peter Selinger 2001-2017
</metadata>
<g transform="translate(0.000000,784.000000) scale(0.100000,-0.100000)"
fill="#000000" stroke="none">
<path d="M4089 5438 c-967 -769 -2206 -1752 -2219 -1761 -33 -20 -345 209
-527 386 l-111 109 -131 -104 c-71 -56 -130 -110 -130 -119 -1 -23 242 -256
370 -355 57 -45 156 -115 219 -157 63 -42 124 -82 134 -90 18 -13 12 -27 -137
-297 -86 -156 -157 -286 -157 -289 0 -12 303 -172 310 -164 4 4 76 133 160
286 84 152 155 277 159 277 4 0 59 -22 122 -50 62 -27 185 -73 272 -102 103
-34 157 -57 157 -66 0 -12 -41 -175 -134 -532 -14 -52 -23 -96 -21 -99 7 -6
288 -80 307 -81 20 0 19 -3 98 305 91 351 84 330 111 329 13 -1 101 -12 194
-24 94 -12 246 -30 338 -39 l168 -16 0 -320 c-1 -176 3 -326 7 -333 7 -9 48
-12 173 -10 l164 3 3 331 2 331 143 12 c150 13 357 41 495 68 48 9 86 12 91 7
4 -5 43 -146 86 -314 42 -168 80 -308 84 -312 3 -4 77 12 164 34 115 30 157
45 157 56 0 13 -36 156 -134 532 -14 52 -24 95 -23 96 1 1 71 25 155 53 85 28
204 74 265 102 62 28 119 51 127 52 9 1 69 -99 170 -280 85 -156 159 -283 164
-283 4 0 75 37 156 82 l149 81 -16 31 c-9 17 -78 144 -154 283 -77 139 -139
257 -139 262 0 5 41 34 91 65 202 126 413 293 564 446 l90 91 -44 40 c-24 22
-82 71 -127 110 l-84 71 -97 -92 c-137 -130 -419 -350 -448 -349 -5 0 -53 55
-106 122 -257 328 -1384 1745 -1403 1765 l-22 23 -255 -203z"/>
<path d="M6039 2226 c-116 -44 -195 -115 -243 -216 -29 -60 -31 -73 -31 -170
0 -97 2 -110 31 -170 39 -83 111 -155 194 -194 60 -29 73 -31 170 -31 97 0
110 2 170 31 83 39 155 111 194 194 29 60 31 73 31 170 0 97 -2 110 -31 170
-39 83 -111 155 -194 194 -57 27 -77 31 -160 33 -61 2 -108 -2 -131 -11z"/>
</g>
</svg>
